<svg width="16" height="16" viewBox="0 0 16 16" fill="none" xmlns="http://www.w3.org/2000/svg">
<path d="M8 14.6667C4.3181 14.6667 1.33333 11.6819 1.33333 8.00004C1.33333 4.31814 4.3181 1.33337 8 1.33337C11.6819 1.33337 14.6667 4.31814 14.6667 8.00004C14.6667 11.6819 11.6819 14.6667 8 14.6667ZM8 13.3334C10.9455 13.3334 13.3333 10.9456 13.3333 8.00004C13.3333 5.05452 10.9455 2.66671 8 2.66671C5.05448 2.66671 2.66667 5.05452 2.66667 8.00004C2.66667 10.9456 5.05448 13.3334 8 13.3334ZM8.66667 8.00004H11.3333V9.33337H7.33333V4.66671H8.66667V8.00004Z" fill="black"/>
</svg>
