<svg width="14" height="14" viewBox="0 0 14 14" fill="none" xmlns="http://www.w3.org/2000/svg">
<path d="M5 0.666626V1.99996H9V0.666626H10.3333V1.99996H13C13.3682 1.99996 13.6667 2.29844 13.6667 2.66663V13.3333C13.6667 13.7015 13.3682 14 13 14H1C0.631814 14 0.333334 13.7015 0.333334 13.3333V2.66663C0.333334 2.29844 0.631814 1.99996 1 1.99996H3.66667V0.666626H5ZM12.3333 7.33329H1.66667V12.6666H12.3333V7.33329ZM4.33333 8.66663V9.99996H3V8.66663H4.33333ZM7.66667 8.66663V9.99996H6.33333V8.66663H7.66667ZM11 8.66663V9.99996H9.66667V8.66663H11ZM3.66667 3.33329H1.66667V5.99996H12.3333V3.33329H10.3333V4.66663H9V3.33329H5V4.66663H3.66667V3.33329Z" fill="black"/>
</svg>
