<svg width="14" height="16" viewBox="0 0 14 16" fill="none" xmlns="http://www.w3.org/2000/svg">
<path d="M6.59273 6.92603L4 9.51876L1.40727 6.92603C-0.024646 5.49409 -0.024646 3.17249 1.40727 1.74057C2.8392 0.308646 5.1608 0.308646 6.59273 1.74057C8.02467 3.17249 8.02467 5.49409 6.59273 6.92603ZM4 5.66663C4.73638 5.66663 5.33333 5.06967 5.33333 4.33329C5.33333 3.59691 4.73638 2.99996 4 2.99996C3.26362 2.99996 2.66667 3.59691 2.66667 4.33329C2.66667 5.06967 3.26362 5.66663 4 5.66663ZM12.5927 12.926L10 15.5188L7.40727 12.926C5.97533 11.4941 5.97533 9.17249 7.40727 7.74056C8.8392 6.30865 11.1608 6.30865 12.5927 7.74056C14.0247 9.17249 14.0247 11.4941 12.5927 12.926ZM10 11.6666C10.7364 11.6666 11.3333 11.0697 11.3333 10.3333C11.3333 9.59689 10.7364 8.99996 10 8.99996C9.2636 8.99996 8.66667 9.59689 8.66667 10.3333C8.66667 11.0697 9.2636 11.6666 10 11.6666Z" fill="black"/>
</svg>
