<svg width="16" height="16" viewBox="0 0 16 16" fill="none" xmlns="http://www.w3.org/2000/svg">
<path d="M7.33334 1.33337C10.6453 1.33337 13.3333 4.02137 13.3333 7.33337C13.3333 10.6454 10.6453 13.3334 7.33334 13.3334C4.02134 13.3334 1.33334 10.6454 1.33334 7.33337C1.33334 4.02137 4.02134 1.33337 7.33334 1.33337ZM7.33334 12C9.91168 12 12 9.91171 12 7.33337C12 4.75504 9.91168 2.66671 7.33334 2.66671C4.75501 2.66671 2.66668 4.75504 2.66668 7.33337C2.66668 9.91171 4.75501 12 7.33334 12ZM12.9902 12.0474L14.8758 13.933L13.933 14.8758L12.0474 12.9902L12.9902 12.0474Z" fill="black"/>
</svg>
