<svg width="14" height="14" viewBox="0 0 14 14" fill="none" xmlns="http://www.w3.org/2000/svg">
<path d="M12.8333 7.87504V12.25C12.8333 12.5722 12.5722 12.8334 12.25 12.8334H11.6667C11.3445 12.8334 11.0833 12.5722 11.0833 12.25V11.6667H2.91667V12.25C2.91667 12.5722 2.6555 12.8334 2.33333 12.8334H1.75C1.42784 12.8334 1.16667 12.5722 1.16667 12.25V7.87504L0.441854 7.69386C0.182173 7.62893 0 7.3956 0 7.12791V6.70837C0 6.54732 0.130584 6.41671 0.291667 6.41671H1.38542L2.63278 3.09039C2.80354 2.63504 3.23885 2.33337 3.72517 2.33337H10.2748C10.7612 2.33337 11.1964 2.63504 11.3672 3.09039L12.6146 6.41671H13.7083C13.8694 6.41671 14 6.54732 14 6.70837V7.12791C14 7.3956 13.8178 7.62893 13.5581 7.69386L12.8333 7.87504ZM2.33333 8.75004V9.91671C2.33333 10.2389 2.5945 10.5 2.91667 10.5H4.80956C4.85753 10.5 4.90477 10.4882 4.94707 10.4656C5.0891 10.3896 5.14268 10.2129 5.06673 10.0709C4.59586 9.19034 3.68475 8.75004 2.33333 8.75004ZM11.6667 8.75004C10.3153 8.75004 9.40409 9.19034 8.93322 10.0709C8.85728 10.2129 8.91088 10.3896 9.05293 10.4656C9.09522 10.4882 9.14247 10.5 9.19042 10.5H11.0833C11.4055 10.5 11.6667 10.2389 11.6667 9.91671V8.75004ZM3.5 3.50004L2.58926 6.23226C2.56944 6.2917 2.55933 6.354 2.55933 6.41671C2.55933 6.73888 2.8205 7.00004 3.14267 7.00004H10.8573C10.9201 7.00004 10.9823 6.98995 11.0418 6.97012C11.3474 6.86821 11.5126 6.53787 11.4108 6.23226L10.5 3.50004H3.5Z" fill="#858585"/>
</svg>
