<svg width="14" height="14" viewBox="0 0 14 14" fill="none" xmlns="http://www.w3.org/2000/svg">
<path d="M1.75001 11.0833V2.33333C1.75001 2.01117 2.01118 1.75 2.33334 1.75H7.58334C7.90551 1.75 8.16667 2.01117 8.16667 2.33333V7H9.33334C9.97769 7 10.5 7.52232 10.5 8.16667V10.5C10.5 10.8222 10.7612 11.0833 11.0833 11.0833C11.4055 11.0833 11.6667 10.8222 11.6667 10.5V6.41667H10.5C10.1778 6.41667 9.91667 6.15551 9.91667 5.83333V3.74162L8.95015 2.77513L9.77516 1.95017L12.6625 4.83752C12.7764 4.95143 12.8333 5.10071 12.8333 5.25V10.5C12.8333 11.4665 12.0499 12.25 11.0833 12.25C10.1168 12.25 9.33334 11.4665 9.33334 10.5V8.16667H8.16667V11.0833H8.75V12.25H1.16667V11.0833H1.75001ZM2.91667 2.91667V6.41667H7V2.91667H2.91667Z" fill="#858585"/>
</svg>
