<svg width="12" height="14" viewBox="0 0 12 14" fill="none" xmlns="http://www.w3.org/2000/svg">
<g clip-path="url(#clip0_82_233)">
<path d="M1.87224 0C3.05785 0.484805 3.41813 1.79245 2.47296 2.76128C2.38628 2.85028 2.24684 2.85964 2.24684 2.87292V6.21112H5.24289V2.87292C5.24289 2.85964 5.1042 2.85028 5.01677 2.76128C4.0716 1.79245 4.43188 0.484805 5.61749 0H6.36668C7.55229 0.484805 7.91257 1.79245 6.9674 2.76128C6.88072 2.85028 6.74128 2.85964 6.74128 2.87292V6.21112H9.73733V2.87292C9.73733 2.85964 9.59864 2.85028 9.51121 2.76128C8.56604 1.79245 8.92632 0.484805 10.1119 0H10.8611C12.0467 0.484805 12.407 1.79245 11.4618 2.76128C11.3752 2.85028 11.2357 2.85964 11.2357 2.87292V7.7639H6.74128V11.1021C6.74128 11.1177 6.89957 11.1396 7.00584 11.2536C7.63746 11.9288 7.70153 12.9367 7.00358 13.5862C5.60015 14.8923 3.51008 12.8243 4.97908 11.2536C5.08536 11.1404 5.24364 11.1177 5.24364 11.1021V7.7639H2.24684V11.0638C2.24684 11.1357 2.92972 11.5026 2.99604 12.2278C3.17694 14.2092 0.573582 14.6667 0 12.8102V12.0335C0.169587 11.5752 0.461278 11.3144 0.749953 10.9858L0.733371 2.88775C0.325608 2.70117 0.186169 2.31785 0.000753721 1.94V1.16322C0.2329 0.584732 0.56303 0.241231 1.1238 0H1.873H1.87224Z" fill="#858585"/>
</g>
<defs>
<clipPath id="clip0_82_233">
<rect width="12" height="14" fill="white"/>
</clipPath>
</defs>
</svg>
