<?xml version="1.0" standalone="no"?>
<!DOCTYPE svg PUBLIC "-//W3C//DTD SVG 20010904//EN"
 "http://www.w3.org/TR/2001/REC-SVG-20010904/DTD/svg10.dtd">
<svg version="1.0" xmlns="http://www.w3.org/2000/svg"
 width="674.000000pt" height="688.000000pt" viewBox="0 0 674.000000 688.000000"
 preserveAspectRatio="xMidYMid meet">

<g transform="translate(0.000000,688.000000) scale(0.100000,-0.100000)"
fill="#000000" stroke="none">
<path d="M1998 5563 c9 -3 12 -45 12 -159 l0 -154 -155 0 -154 0 -4 118 -3
117 -2 -117 -2 -117 -117 -4 -118 -3 118 -2 117 -2 0 -150 0 -150 -149 0 -150
0 -4 48 c-2 26 -3 -137 -3 -363 0 -225 1 -391 3 -367 l4 42 150 0 149 0 0
-155 0 -154 -112 -4 -113 -3 112 -2 112 -2 4 -112 3 -113 2 113 2 112 155 0
154 0 4 -152 3 -153 2 153 2 152 150 0 149 0 4 -152 3 -153 2 153 2 152 155 0
154 0 4 -152 3 -153 2 153 2 152 150 0 149 0 4 -107 3 -108 2 107 2 107 108 4
107 3 -107 2 -108 2 0 155 0 154 153 4 152 3 -152 2 -153 2 0 150 0 149 153 4
152 3 -152 2 -153 2 0 155 0 154 153 4 152 3 -152 2 -153 2 0 150 0 149 113 4
112 3 -112 2 -112 2 -4 118 -3 117 -2 -117 -2 -118 -150 0 -150 0 0 160 0 160
-332 -1 c-183 0 -327 -3 -320 -6z m322 -158 l0 -155 -150 0 -150 0 0 155 0
155 150 0 150 0 0 -155z m320 0 l0 -155 -155 0 -155 0 0 155 0 155 155 0 155
0 0 -155z m-630 -315 l0 -150 -155 0 -155 0 0 150 0 150 155 0 155 0 0 -150z
m310 0 l0 -150 -150 0 -150 0 0 150 0 150 150 0 150 0 0 -150z m320 0 l0 -150
-155 0 -155 0 0 150 0 150 155 0 155 0 0 -150z m310 0 l0 -150 -150 0 -150 0
0 150 0 150 150 0 150 0 0 -150z m-1260 -315 l0 -155 -150 0 -150 0 0 155 0
155 150 0 150 0 0 -155z m320 0 l0 -155 -155 0 -155 0 0 155 0 155 155 0 155
0 0 -155z m310 0 l0 -155 -150 0 -150 0 0 155 0 155 150 0 150 0 0 -155z m320
0 l0 -155 -155 0 -155 0 0 155 0 155 155 0 155 0 0 -155z m310 0 l0 -155 -150
0 -150 0 0 155 0 155 150 0 150 0 0 -155z m-1260 -315 l0 -150 -150 0 -150 0
0 150 0 150 150 0 150 0 0 -150z m320 0 l0 -150 -155 0 -155 0 0 150 0 150
155 0 155 0 0 -150z m310 0 l0 -150 -150 0 -150 0 0 150 0 150 150 0 150 0 0
-150z m320 0 l0 -150 -155 0 -155 0 0 150 0 150 155 0 155 0 0 -150z m310 0
l0 -150 -150 0 -150 0 0 150 0 150 150 0 150 0 0 -150z m-940 -315 l0 -155
-155 0 -155 0 0 155 0 155 155 0 155 0 0 -155z m310 0 l0 -155 -150 0 -150 0
0 155 0 155 150 0 150 0 0 -155z m320 0 l0 -155 -155 0 -155 0 0 155 0 155
155 0 155 0 0 -155z m310 0 l0 -155 -150 0 -150 0 0 155 0 155 150 0 150 0 0
-155z"/>
<path d="M4208 5563 c9 -3 12 -45 12 -159 l0 -154 -155 0 -154 0 -4 118 -3
117 -2 -117 -2 -117 -117 -4 -118 -3 118 -2 117 -2 0 -150 0 -149 -157 -4
-158 -3 158 -2 157 -2 0 -155 0 -154 -157 -4 -158 -3 158 -2 157 -2 0 -150 0
-149 -157 -4 -158 -3 158 -2 157 -2 0 -155 0 -154 -112 -4 -113 -3 112 -2 112
-2 4 -112 3 -113 2 113 2 112 155 0 154 0 4 -152 3 -153 2 153 2 152 150 0
149 0 4 -152 3 -153 2 153 2 152 155 0 154 0 4 -152 3 -153 2 153 2 152 150 0
149 0 4 -107 3 -108 2 107 2 107 108 4 107 3 -107 2 -108 2 0 155 0 154 153 4
152 3 -152 2 -153 2 0 150 0 149 153 4 152 3 -152 2 -153 2 0 155 0 154 153 4
152 3 -152 2 -153 2 0 150 0 149 113 4 112 3 -112 2 -112 2 -4 118 -3 117 -2
-117 -2 -118 -150 0 -150 0 0 160 0 160 -332 -1 c-183 0 -327 -3 -320 -6z
m322 -158 l0 -155 -150 0 -150 0 0 155 0 155 150 0 150 0 0 -155z m320 0 l0
-155 -155 0 -155 0 0 155 0 155 155 0 155 0 0 -155z m-630 -315 l0 -150 -155
0 -155 0 0 150 0 150 155 0 155 0 0 -150z m310 0 l0 -150 -150 0 -150 0 0 150
0 150 150 0 150 0 0 -150z m320 0 l0 -150 -155 0 -155 0 0 150 0 150 155 0
155 0 0 -150z m310 0 l0 -150 -150 0 -150 0 0 150 0 150 150 0 150 0 0 -150z
m-940 -315 l0 -155 -155 0 -155 0 0 155 0 155 155 0 155 0 0 -155z m310 0 l0
-155 -150 0 -150 0 0 155 0 155 150 0 150 0 0 -155z m320 0 l0 -155 -155 0
-155 0 0 155 0 155 155 0 155 0 0 -155z m310 0 l0 -155 -150 0 -150 0 0 155 0
155 150 0 150 0 0 -155z m-940 -315 l0 -150 -155 0 -155 0 0 150 0 150 155 0
155 0 0 -150z m310 0 l0 -150 -150 0 -150 0 0 150 0 150 150 0 150 0 0 -150z
m320 0 l0 -150 -155 0 -155 0 0 150 0 150 155 0 155 0 0 -150z m310 0 l0 -150
-150 0 -150 0 0 150 0 150 150 0 150 0 0 -150z m-940 -315 l0 -155 -155 0
-155 0 0 155 0 155 155 0 155 0 0 -155z m310 0 l0 -155 -150 0 -150 0 0 155 0
155 150 0 150 0 0 -155z m320 0 l0 -155 -155 0 -155 0 0 155 0 155 155 0 155
0 0 -155z m310 0 l0 -155 -150 0 -150 0 0 155 0 155 150 0 150 0 0 -155z"/>
<path d="M1983 3353 l27 -4 0 -150 0 -149 -155 0 -154 0 -4 113 -3 112 -2
-112 -2 -112 -117 -4 -118 -3 118 -2 117 -2 0 -155 0 -155 -149 0 -150 0 -4
48 c-2 26 -3 -137 -3 -363 0 -225 1 -391 3 -367 l4 42 150 0 149 0 0 -155 0
-154 -112 -4 -113 -3 112 -2 112 -2 4 -107 3 -108 2 108 2 107 155 0 154 0 4
-152 3 -153 2 153 2 152 150 0 149 0 4 -152 3 -153 2 153 2 152 155 0 154 0 4
-152 3 -153 2 153 2 152 150 0 149 0 4 -107 3 -108 2 107 2 107 108 4 107 3
-107 2 -108 2 0 155 0 154 153 4 152 3 -152 2 -153 2 0 155 0 154 153 4 152 3
-152 2 -153 2 0 150 0 149 153 4 152 3 -152 2 -153 2 0 155 0 154 113 4 112 3
-112 2 -112 2 -4 113 -3 112 -2 -112 -2 -113 -150 0 -150 0 0 149 c0 147 0
150 23 154 12 2 -144 4 -348 4 -203 0 -358 -2 -342 -4z m337 -153 l0 -150
-150 0 -150 0 0 150 0 150 150 0 150 0 0 -150z m320 0 l0 -150 -155 0 -155 0
0 150 0 150 155 0 155 0 0 -150z m-630 -315 l0 -155 -155 0 -155 0 0 155 0
155 155 0 155 0 0 -155z m310 0 l0 -155 -150 0 -150 0 0 155 0 155 150 0 150
0 0 -155z m320 0 l0 -155 -155 0 -155 0 0 155 0 155 155 0 155 0 0 -155z m310
0 l0 -155 -150 0 -150 0 0 155 0 155 150 0 150 0 0 -155z m-1260 -315 l0 -150
-150 0 -150 0 0 150 0 150 150 0 150 0 0 -150z m320 0 l0 -150 -155 0 -155 0
0 150 0 150 155 0 155 0 0 -150z m310 0 l0 -150 -150 0 -150 0 0 150 0 150
150 0 150 0 0 -150z m320 0 l0 -150 -155 0 -155 0 0 150 0 150 155 0 155 0 0
-150z m310 0 l0 -150 -150 0 -150 0 0 150 0 150 150 0 150 0 0 -150z m-1260
-315 l0 -155 -150 0 -150 0 0 155 0 155 150 0 150 0 0 -155z m320 0 l0 -155
-155 0 -155 0 0 155 0 155 155 0 155 0 0 -155z m310 0 l0 -155 -150 0 -150 0
0 155 0 155 150 0 150 0 0 -155z m320 0 l0 -155 -155 0 -155 0 0 155 0 155
155 0 155 0 0 -155z m310 0 l0 -155 -150 0 -150 0 0 155 0 155 150 0 150 0 0
-155z m-940 -320 l0 -155 -155 0 -155 0 0 155 0 155 155 0 155 0 0 -155z m310
0 l0 -155 -150 0 -150 0 0 155 0 155 150 0 150 0 0 -155z m320 0 l0 -155 -155
0 -155 0 0 155 0 155 155 0 155 0 0 -155z m310 0 l0 -155 -150 0 -150 0 0 155
0 155 150 0 150 0 0 -155z"/>
<path d="M4188 3353 l32 -4 0 -150 0 -149 -155 0 -154 0 -4 118 -3 117 -2
-117 -2 -117 -117 -4 -118 -3 118 -2 117 -2 0 -155 0 -154 -157 -4 -158 -3
158 -2 157 -2 0 -150 0 -149 -157 -4 -158 -3 158 -2 157 -2 0 -155 0 -154
-157 -4 -158 -3 158 -2 157 -2 0 -155 0 -154 -112 -4 -113 -3 112 -2 112 -2 4
-112 3 -113 2 113 2 112 155 0 154 0 4 -152 3 -153 2 153 2 152 150 0 149 0 4
-152 3 -153 2 153 2 152 155 0 154 0 4 -152 3 -153 2 153 2 152 150 0 149 0 4
-107 3 -108 2 107 2 107 108 4 107 3 -107 2 -108 2 0 155 0 154 153 4 152 3
-152 2 -153 2 0 155 0 154 153 4 152 3 -152 2 -153 2 0 150 0 149 153 4 152 3
-152 2 -153 2 0 155 0 154 108 4 107 3 -107 2 -107 2 -4 113 -3 112 -2 -112
-2 -113 -150 0 -150 0 0 149 c0 134 2 150 18 154 9 3 -149 4 -353 4 -203 0
-355 -2 -337 -4z m342 -153 l0 -150 -150 0 -150 0 0 150 0 150 150 0 150 0 0
-150z m320 0 l0 -150 -155 0 -155 0 0 150 0 150 155 0 155 0 0 -150z m-630
-315 l0 -155 -155 0 -155 0 0 155 0 155 155 0 155 0 0 -155z m310 0 l0 -155
-150 0 -150 0 0 155 0 155 150 0 150 0 0 -155z m320 0 l0 -155 -155 0 -155 0
0 155 0 155 155 0 155 0 0 -155z m310 0 l0 -155 -150 0 -150 0 0 155 0 155
150 0 150 0 0 -155z m-940 -315 l0 -150 -155 0 -155 0 0 150 0 150 155 0 155
0 0 -150z m310 0 l0 -150 -150 0 -150 0 0 150 0 150 150 0 150 0 0 -150z m320
0 l0 -150 -155 0 -155 0 0 150 0 150 155 0 155 0 0 -150z m310 0 l0 -150 -150
0 -150 0 0 150 0 150 150 0 150 0 0 -150z m-940 -315 l0 -155 -155 0 -155 0 0
155 0 155 155 0 155 0 0 -155z m310 0 l0 -155 -150 0 -150 0 0 155 0 155 150
0 150 0 0 -155z m320 0 l0 -155 -155 0 -155 0 0 155 0 155 155 0 155 0 0 -155z
m310 0 l0 -155 -150 0 -150 0 0 155 0 155 150 0 150 0 0 -155z m-940 -320 l0
-155 -155 0 -155 0 0 155 0 155 155 0 155 0 0 -155z m310 0 l0 -155 -150 0
-150 0 0 155 0 155 150 0 150 0 0 -155z m320 0 l0 -155 -155 0 -155 0 0 155 0
155 155 0 155 0 0 -155z m310 0 l0 -155 -150 0 -150 0 0 155 0 155 150 0 150
0 0 -155z"/>
</g>
</svg>
