<?xml version="1.0" standalone="no"?>
<!DOCTYPE svg PUBLIC "-//W3C//DTD SVG 20010904//EN"
 "http://www.w3.org/TR/2001/REC-SVG-20010904/DTD/svg10.dtd">
<svg version="1.0" xmlns="http://www.w3.org/2000/svg"
 width="674.000000pt" height="598.000000pt" viewBox="0 0 674.000000 598.000000"
 preserveAspectRatio="xMidYMid meet">

<g transform="translate(0.000000,598.000000) scale(0.100000,-0.100000)"
fill="#000000" stroke="none">
<path d="M968 5051 c-80 -26 -135 -61 -194 -123 -103 -109 -139 -207 -132
-355 5 -85 9 -102 47 -177 64 -131 180 -225 312 -255 107 -25 251 -5 339 46
61 36 146 118 177 171 80 136 84 323 11 467 -26 51 -122 150 -174 181 -111 65
-266 83 -386 45z m265 -160 c96 -41 167 -131 187 -237 22 -114 -25 -230 -124
-305 -60 -45 -104 -59 -193 -59 -265 0 -406 322 -228 519 47 52 88 77 156 96
65 18 140 13 202 -14z"/>
<path d="M2214 4747 c-2 -7 -3 -78 -2 -157 l3 -145 1888 -3 1887 -2 0 160 0
160 -1885 0 c-1535 0 -1887 -2 -1891 -13z"/>
<path d="M996 3799 c-118 -28 -257 -141 -310 -252 -86 -183 -50 -403 90 -543
96 -95 214 -139 357 -132 111 6 182 31 266 94 181 136 236 409 123 604 -59
102 -163 187 -273 221 -65 20 -184 24 -253 8z m239 -173 c196 -88 253 -332
113 -490 -131 -150 -351 -148 -481 5 -124 145 -78 380 93 473 89 48 184 52
275 12z"/>
<path d="M2214 3487 c-2 -7 -3 -78 -2 -157 l3 -145 1888 -3 1887 -2 0 160 0
160 -1885 0 c-1535 0 -1887 -2 -1891 -13z"/>
<path d="M993 2535 c-137 -37 -248 -131 -310 -260 -31 -66 -37 -89 -41 -170
-4 -76 -1 -106 17 -163 47 -156 174 -280 330 -322 72 -19 199 -14 271 10 121
41 208 115 268 228 41 78 56 152 50 255 -4 76 -9 96 -46 171 -101 203 -326
308 -539 251z m209 -155 c20 -6 58 -25 85 -44 203 -140 177 -439 -47 -545 -44
-21 -70 -26 -130 -26 -99 1 -163 29 -229 101 -183 200 -46 521 224 523 33 1
77 -4 97 -9z"/>
<path d="M2217 2233 c-4 -3 -7 -75 -7 -160 l0 -153 1890 0 1890 0 0 160 0 160
-1883 0 c-1036 0 -1887 -3 -1890 -7z"/>
</g>
</svg>
