<svg width="16" height="16" viewBox="0 0 16 16" fill="none" xmlns="http://www.w3.org/2000/svg">
<path d="M12 6.66671C12 4.45757 10.2091 2.66671 8 2.66671C5.79086 2.66671 4 4.45757 4 6.66671V12H12V6.66671ZM13.3333 12.4445L13.6 12.8C13.7105 12.9473 13.6806 13.1562 13.5333 13.2667C13.4757 13.31 13.4055 13.3334 13.3333 13.3334H2.66667C2.48258 13.3334 2.33334 13.1841 2.33334 13C2.33334 12.9279 2.35673 12.8577 2.4 12.8L2.66667 12.4445V6.66671C2.66667 3.72119 5.05448 1.33337 8 1.33337C10.9455 1.33337 13.3333 3.72119 13.3333 6.66671V12.4445ZM6.33334 14H9.66667C9.66667 14.9205 8.92047 15.6667 8 15.6667C7.07954 15.6667 6.33334 14.9205 6.33334 14Z" fill="white"/>
</svg>
