<svg width="14" height="14" viewBox="0 0 14 14" fill="none" xmlns="http://www.w3.org/2000/svg">
<path d="M7.00001 5.83329C8.28865 5.83329 9.33334 4.78862 9.33334 3.49996C9.33334 2.21129 8.28865 1.16663 7.00001 1.16663C5.71134 1.16663 4.66667 2.21129 4.66667 3.49996C4.66667 4.78862 5.71134 5.83329 7.00001 5.83329ZM3.20834 7.58329C4.01375 7.58329 4.66667 6.93037 4.66667 6.12496C4.66667 5.31955 4.01375 4.66663 3.20834 4.66663C2.40292 4.66663 1.75001 5.31955 1.75001 6.12496C1.75001 6.93037 2.40292 7.58329 3.20834 7.58329ZM12.25 6.12496C12.25 6.93037 11.5971 7.58329 10.7917 7.58329C9.98626 7.58329 9.33334 6.93037 9.33334 6.12496C9.33334 5.31955 9.98626 4.66663 10.7917 4.66663C11.5971 4.66663 12.25 5.31955 12.25 6.12496ZM7.00001 6.41663C8.61082 6.41663 9.91667 7.72248 9.91667 9.33329V12.8333H4.08334V9.33329C4.08334 7.72248 5.38918 6.41663 7.00001 6.41663ZM2.91667 9.33323C2.91667 8.92904 2.9754 8.53856 3.08478 8.16989L2.98588 8.17853C1.96294 8.28936 1.16667 9.15584 1.16667 10.2082V12.8332H2.91667V9.33323ZM12.8333 12.8332V10.2082C12.8333 9.12201 11.9851 8.23388 10.9152 8.16989C11.0246 8.53856 11.0833 8.92904 11.0833 9.33323V12.8332H12.8333Z" fill="#858585"/>
</svg>
