<svg width="14" height="14" viewBox="0 0 14 14" fill="none" xmlns="http://www.w3.org/2000/svg">
<path d="M6.99989 1.92397L8.42631 0.973022L9.07346 1.94375L7.58322 2.93724V5.98961L10.2266 4.46343L10.3419 2.67609L11.5061 2.75117L11.3958 4.46197L12.9325 5.22182L12.4154 6.26762L10.8099 5.47379L8.16673 6.99982L10.8102 8.52606L12.4157 7.7322L12.9327 8.778L11.396 9.53785L11.5063 11.2486L10.3421 11.3237L10.2268 9.53639L7.58322 8.0101V11.0629L9.07346 12.0563L8.42631 13.0271L6.99989 12.0761L5.57344 13.0271L4.92629 12.0563L6.41655 11.0629V8.01033L3.77292 9.53662L3.65765 11.324L2.4934 11.2488L2.60374 9.53802L1.06698 8.77823L1.58407 7.73237L3.18959 8.52623L5.8334 6.99982L3.18981 5.47358L1.5843 6.26745L1.0672 5.22161L2.60396 4.46176L2.49362 2.75097L3.65788 2.67588L3.77314 4.46322L6.41655 5.98937V2.93724L4.92629 1.94375L5.57344 0.973022L6.99989 1.92397Z" fill="#858585"/>
</svg>
