<?xml version="1.0" standalone="no"?>
<!DOCTYPE svg PUBLIC "-//W3C//DTD SVG 20010904//EN"
 "http://www.w3.org/TR/2001/REC-SVG-20010904/DTD/svg10.dtd">
<svg version="1.0" xmlns="http://www.w3.org/2000/svg"
 width="309.000000pt" height="269.000000pt" viewBox="0 0 309.000000 269.000000"
 preserveAspectRatio="xMidYMid meet">

<g transform="translate(0.000000,269.000000) scale(0.100000,-0.100000)"
fill="#000000" stroke="none">
<path d="M815 1940 l-229 -230 44 -45 c24 -25 49 -45 55 -45 5 0 73 64 150
141 l140 140 3 -665 2 -666 65 0 65 0 2 666 3 665 140 -140 c77 -77 144 -141
149 -141 4 0 29 20 54 45 l46 46 -229 229 -230 230 -230 -230z"/>
<path d="M2070 1403 l0 -668 -145 145 -144 144 -23 -20 c-13 -10 -35 -32 -50
-49 l-26 -30 221 -222 c122 -123 227 -223 232 -223 6 0 111 101 235 225 l225
225 -48 47 -47 48 -143 -143 c-78 -78 -145 -142 -149 -142 -4 0 -7 267 -7 593
0 325 0 625 -1 665 l0 72 -65 0 -65 0 0 -667z"/>
</g>
</svg>
