<?xml version="1.0" standalone="no"?>
<!DOCTYPE svg PUBLIC "-//W3C//DTD SVG 20010904//EN"
 "http://www.w3.org/TR/2001/REC-SVG-20010904/DTD/svg10.dtd">
<svg version="1.0" xmlns="http://www.w3.org/2000/svg"
 width="109.000000pt" height="108.000000pt" viewBox="0 0 109.000000 108.000000"
 preserveAspectRatio="xMidYMid meet">

<g transform="translate(0.000000,108.000000) scale(0.100000,-0.100000)"
fill="#000000" stroke="none">
<path d="M90 1030 c0 -13 -7 -20 -20 -20 -11 0 -20 -7 -20 -15 0 -9 -7 -18
-15 -21 -25 -10 -17 -24 15 -24 26 0 31 5 36 30 4 16 15 32 25 35 25 8 24 35
-1 35 -13 0 -20 -7 -20 -20z"/>
<path d="M261 1034 c0 -11 3 -14 6 -6 3 7 2 16 -1 19 -3 4 -6 -2 -5 -13z"/>
<path d="M310 1035 c0 -10 11 -15 35 -15 24 0 35 5 35 15 0 10 -11 15 -35 15
-24 0 -35 -5 -35 -15z"/>
<path d="M450 1036 c0 -10 9 -16 21 -16 24 0 21 23 -4 28 -10 2 -17 -3 -17
-12z"/>
<path d="M670 1035 c0 -10 11 -15 35 -15 24 0 35 5 35 15 0 10 -11 15 -35 15
-24 0 -35 -5 -35 -15z"/>
<path d="M806 1035 c-4 -11 1 -15 19 -15 16 0 25 6 25 15 0 8 -9 15 -19 15
-10 0 -21 -7 -25 -15z"/>
<path d="M1051 1038 c0 -10 -5 -18 -11 -18 -5 0 -10 -11 -10 -25 0 -26 7 -29
34 -19 17 6 23 44 7 44 -5 0 -12 8 -14 18 -4 16 -5 16 -6 0z"/>
<path d="M543 1003 c15 -2 39 -2 55 0 15 2 2 4 -28 4 -30 0 -43 -2 -27 -4z"/>
<path d="M165 942 c-15 -15 -2 -32 25 -32 23 0 30 5 30 19 0 13 -7 19 -25 19
-13 0 -27 -3 -30 -6z"/>
<path d="M283 943 c-7 -3 -13 -11 -13 -19 0 -8 -5 -14 -11 -14 -15 0 -41 -28
-37 -40 2 -5 17 3 35 18 17 15 39 32 49 38 14 8 15 11 3 16 -8 3 -20 3 -26 1z"/>
<path d="M810 940 c-8 -5 -10 -10 -4 -10 6 0 25 -13 42 -29 30 -29 42 -30 42
-4 0 7 -8 13 -19 13 -10 0 -21 9 -24 20 -6 22 -15 25 -37 10z"/>
<path d="M950 926 c0 -7 9 -25 20 -39 11 -14 20 -32 20 -41 0 -9 8 -16 20 -16
11 0 20 -7 20 -15 0 -8 7 -15 15 -15 8 0 15 -9 15 -20 0 -11 -7 -20 -15 -20
-8 0 -15 -7 -15 -16 0 -8 7 -22 15 -30 13 -14 15 -14 15 -1 0 9 6 17 12 19 20
7 16 88 -5 99 -9 6 -17 17 -17 24 0 8 -4 15 -10 15 -5 0 -10 6 -10 14 0 8 -9
18 -20 21 -11 3 -20 13 -20 21 0 8 -9 14 -20 14 -11 0 -20 -6 -20 -14z"/>
<path d="M683 893 c4 -3 7 -13 7 -24 0 -10 5 -19 10 -19 6 0 10 5 10 10 0 6 7
10 15 10 8 0 15 5 15 10 0 6 -9 10 -19 10 -11 0 -25 2 -33 3 -7 2 -10 2 -5 0z"/>
<path d="M380 881 c0 -5 11 -11 25 -13 17 -4 25 -1 25 8 0 8 -11 14 -25 14
-14 0 -25 -4 -25 -9z"/>
<path d="M60 835 c0 -31 3 -35 25 -35 16 0 25 6 25 15 0 8 5 15 10 15 6 0 10
9 10 20 0 16 -7 20 -35 20 -33 0 -35 -2 -35 -35z"/>
<path d="M330 840 c0 -5 4 -10 9 -10 6 0 13 5 16 10 3 6 -1 10 -9 10 -9 0 -16
-4 -16 -10z"/>
<path d="M503 832 c-6 -4 -13 -18 -17 -32 -3 -14 -3 -19 0 -12 3 6 14 12 25
12 10 0 19 6 19 14 0 19 -13 27 -27 18z"/>
<path d="M578 832 c-19 -2 -25 -8 -21 -18 7 -19 42 -18 50 1 7 20 4 21 -29 17z"/>
<path d="M714 824 c3 -9 6 -18 6 -20 0 -2 9 -4 20 -4 18 0 19 2 8 20 -15 24
-43 27 -34 4z"/>
<path d="M360 815 c0 -8 9 -15 20 -15 11 0 20 7 20 15 0 8 -9 15 -20 15 -11 0
-20 -7 -20 -15z"/>
<path d="M610 799 c0 -6 7 -18 16 -26 10 -10 13 -25 10 -39 -5 -19 -2 -24 14
-24 15 0 20 7 20 25 0 14 -4 25 -10 25 -5 0 -10 9 -10 19 0 10 -7 22 -16 25
-21 8 -24 8 -24 -5z"/>
<path d="M150 785 c0 -9 6 -12 15 -9 8 4 15 10 15 15 0 5 -7 9 -15 9 -8 0 -15
-7 -15 -15z"/>
<path d="M265 780 c-3 -11 -11 -20 -16 -20 -5 0 -9 -9 -9 -19 0 -11 -6 -22
-12 -24 -7 -3 5 -6 26 -6 36 -1 38 0 21 12 -21 16 -12 37 16 37 12 0 19 7 19
20 0 13 -7 20 -19 20 -11 0 -23 -9 -26 -20z"/>
<path d="M810 786 c0 -14 29 -31 38 -22 2 3 2 12 -1 21 -8 19 -37 20 -37 1z"/>
<path d="M940 791 c0 -5 7 -11 15 -15 9 -3 15 0 15 9 0 8 -7 15 -15 15 -8 0
-15 -4 -15 -9z"/>
<path d="M53 725 c-3 -29 0 -35 17 -35 16 0 20 7 20 35 0 27 -4 35 -17 35 -13
0 -19 -9 -20 -35z"/>
<path d="M345 750 c3 -5 13 -10 21 -10 8 0 14 5 14 10 0 6 -9 10 -21 10 -11 0
-17 -4 -14 -10z"/>
<path d="M450 741 c-14 -28 -13 -31 14 -31 19 0 22 4 18 25 -5 30 -18 32 -32
6z"/>
<path d="M530 735 c0 -21 5 -25 29 -25 24 0 29 4 29 25 0 21 -5 25 -29 25 -24
0 -29 -4 -29 -25z"/>
<path d="M740 749 c0 -18 28 -39 52 -39 23 0 22 1 -6 25 -31 27 -46 31 -46 14z"/>
<path d="M864 745 c3 -8 1 -15 -4 -15 -6 0 -10 -4 -10 -10 0 -5 11 -10 24 -10
22 0 23 2 13 25 -13 26 -33 35 -23 10z"/>
<path d="M310 719 c0 -5 11 -9 25 -9 14 0 25 4 25 9 0 5 -11 9 -25 9 -14 0
-25 -4 -25 -9z"/>
<path d="M1005 680 c3 -5 10 -10 16 -10 5 0 9 5 9 10 0 6 -7 10 -16 10 -8 0
-12 -4 -9 -10z"/>
<path d="M0 615 c0 -19 5 -35 10 -35 6 0 10 16 10 35 0 19 -4 35 -10 35 -5 0
-10 -16 -10 -35z"/>
<path d="M285 633 l-50 -4 3 -39 c3 -27 9 -40 19 -40 10 0 14 9 11 33 -3 31
-2 32 35 32 23 0 37 5 37 13 0 6 -1 11 -2 10 -2 -1 -26 -3 -53 -5z"/>
<path d="M780 625 c0 -7 15 -9 35 -7 31 4 35 1 35 -18 0 -29 33 -23 35 7 1 19
-4 22 -52 25 -32 2 -53 -1 -53 -7z"/>
<path d="M1022 620 c0 -14 2 -19 5 -12 2 6 2 18 0 25 -3 6 -5 1 -5 -13z"/>
<path d="M433 623 c9 -2 17 -13 17 -24 0 -25 30 -25 37 1 5 18 14 20 73 20 59
0 68 -2 73 -20 7 -26 37 -26 37 -1 0 11 8 22 18 24 9 3 -48 5 -128 5 -80 0
-137 -2 -127 -5z"/>
<path d="M0 531 c0 -17 6 -21 30 -21 20 0 30 5 30 15 0 8 -6 15 -14 15 -8 0
-21 3 -30 6 -12 4 -16 0 -16 -15z"/>
<path d="M400 531 c0 -12 5 -21 10 -21 6 0 10 6 10 14 0 8 -4 18 -10 21 -5 3
-10 -3 -10 -14z"/>
<path d="M706 542 c-2 -4 -1 -14 5 -22 7 -12 9 -10 9 8 0 23 -5 28 -14 14z"/>
<path d="M276 518 c-10 -38 -7 -48 14 -48 13 0 20 7 20 20 0 11 -4 20 -10 20
-5 0 -7 7 -4 15 4 8 2 15 -4 15 -5 0 -12 -10 -16 -22z"/>
<path d="M807 533 c-9 -18 15 -93 29 -93 12 0 14 11 12 50 -2 39 -7 50 -20 50
-9 0 -19 -3 -21 -7z"/>
<path d="M1072 493 c-1 -27 3 -55 8 -63 7 -11 10 3 10 48 0 72 -16 85 -18 15z"/>
<path d="M193 473 c0 -21 2 -28 4 -15 3 16 11 22 30 22 21 0 24 2 13 15 -7 8
-20 15 -30 15 -13 0 -17 -9 -17 -37z"/>
<path d="M522 494 c2 -8 6 -15 11 -15 4 1 21 1 37 1 20 0 30 5 30 15 0 11 -11
15 -41 15 -31 0 -40 -4 -37 -16z"/>
<path d="M890 501 c0 -5 7 -11 15 -15 8 -3 15 -15 15 -26 0 -11 5 -20 10 -20
6 0 10 9 10 20 0 11 -4 20 -10 20 -5 0 -10 7 -10 15 0 8 -7 15 -15 15 -8 0
-15 -4 -15 -9z"/>
<path d="M0 455 c0 -8 5 -15 10 -15 6 0 10 -18 10 -40 0 -22 -4 -40 -10 -40
-5 0 -10 -13 -10 -30 0 -16 5 -30 10 -30 6 0 10 7 10 15 0 8 9 15 20 15 13 0
20 7 20 19 0 11 3 26 6 34 3 9 -2 16 -14 19 -15 4 -18 12 -14 37 4 26 1 31
-17 31 -12 0 -21 -6 -21 -15z"/>
<path d="M466 455 c4 -8 11 -15 16 -15 6 0 5 6 -2 15 -7 8 -14 15 -16 15 -2 0
-1 -7 2 -15z"/>
<path d="M988 340 c-9 -22 -12 -40 -7 -40 5 0 9 -9 9 -20 0 -16 7 -20 30 -20
17 0 30 5 30 10 0 11 -21 52 -31 60 -4 3 -9 15 -10 27 -3 19 -7 16 -21 -17z"/>
<path d="M446 345 c4 -8 15 -15 25 -15 10 0 19 -7 19 -15 0 -8 7 -15 15 -15
21 0 19 12 -5 38 -24 25 -63 30 -54 7z"/>
<path d="M650 345 c0 -8 4 -15 9 -15 5 0 11 7 15 15 3 9 0 15 -9 15 -8 0 -15
-7 -15 -15z"/>
<path d="M80 295 c0 -31 3 -35 25 -35 22 0 25 4 25 35 0 31 -3 35 -25 35 -22
0 -25 -4 -25 -35z"/>
<path d="M240 320 c0 -10 14 -14 39 -10 8 1 12 -4 8 -14 -4 -10 -1 -13 9 -9
10 4 14 -3 15 -23 0 -28 1 -28 11 -7 9 18 6 26 -15 47 -26 26 -67 35 -67 16z"/>
<path d="M612 315 c-11 -12 -10 -15 3 -15 8 0 15 7 15 15 0 18 -2 18 -18 0z"/>
<path d="M810 311 c0 -11 -3 -26 -6 -35 -3 -9 -1 -16 5 -16 12 0 71 53 71 64
0 3 -16 6 -35 6 -28 0 -35 -4 -35 -19z"/>
<path d="M531 263 c0 -16 3 -22 6 -15 8 19 23 14 23 -8 0 -11 -6 -20 -14 -20
-11 0 -12 -5 -3 -25 7 -14 19 -25 27 -25 11 0 11 3 2 12 -18 18 -15 35 8 41
15 4 20 14 20 36 0 29 -3 31 -35 31 -32 0 -35 -3 -34 -27z"/>
<path d="M0 205 c0 -8 9 -15 20 -15 11 0 20 7 20 15 0 8 -9 15 -20 15 -11 0
-20 -7 -20 -15z"/>
<path d="M130 206 c0 -15 24 -28 34 -19 13 14 5 33 -14 33 -11 0 -20 -6 -20
-14z"/>
<path d="M358 213 c7 -3 16 -2 19 1 4 3 -2 6 -13 5 -11 0 -14 -3 -6 -6z"/>
<path d="M690 205 c0 -8 4 -15 10 -15 5 0 7 7 4 15 -4 8 -8 15 -10 15 -2 0 -4
-7 -4 -15z"/>
<path d="M892 208 c3 -7 15 -15 27 -16 16 -3 22 1 19 10 -3 7 -15 15 -27 16
-16 3 -22 -1 -19 -10z"/>
<path d="M950 205 c0 -8 9 -15 20 -15 11 0 20 7 20 15 0 8 -9 15 -20 15 -11 0
-20 -7 -20 -15z"/>
<path d="M1062 204 c4 -21 22 -23 26 -1 2 10 -3 17 -13 17 -10 0 -15 -6 -13
-16z"/>
<path d="M230 190 c0 -5 5 -10 10 -10 6 0 10 -7 10 -15 0 -8 9 -15 20 -15 11
0 20 4 20 9 0 5 -9 13 -20 16 -11 3 -20 11 -20 16 0 5 -4 9 -10 9 -5 0 -10 -4
-10 -10z"/>
<path d="M852 174 c-22 -23 -22 -24 -2 -24 11 0 20 7 20 15 0 8 5 15 10 15 6
0 10 5 10 10 0 16 -13 11 -38 -16z"/>
<path d="M310 120 c0 -5 7 -10 15 -10 9 0 12 -6 9 -15 -5 -11 1 -15 20 -15 16
0 26 6 26 15 0 8 -7 15 -15 15 -8 0 -15 5 -15 10 0 6 -9 10 -20 10 -11 0 -20
-4 -20 -10z"/>
<path d="M755 114 c-17 -13 -18 -16 -5 -24 33 -21 64 -5 53 28 -6 16 -23 15
-48 -4z"/>
<path d="M0 95 c0 -8 5 -15 10 -15 6 0 10 7 10 15 0 8 -4 15 -10 15 -5 0 -10
-7 -10 -15z"/>
<path d="M360 20 c0 -22 21 -25 79 -14 54 11 38 34 -24 34 -48 0 -55 -2 -55
-20z"/>
<path d="M640 26 c0 -18 22 -26 76 -26 37 0 44 3 44 20 0 18 -7 20 -60 20 -45
0 -60 -4 -60 -14z"/>
</g>
</svg>
