<svg width="14" height="14" viewBox="0 0 14 14" fill="none" xmlns="http://www.w3.org/2000/svg">
<path d="M10.4154 2.98657C10.0126 2.98657 9.68524 3.31389 9.68524 3.71674C9.68524 4.1196 10.0126 4.44692 10.4154 4.44692C10.8183 4.44692 11.1456 4.1196 11.1456 3.71674C11.1456 3.31389 10.8183 2.98657 10.4154 2.98657Z" fill="white"/>
<path d="M7.1624 3.92334C5.46538 3.92334 4.0856 5.30311 4.0856 7.00013C4.0856 8.69715 5.46538 10.0769 7.1624 10.0769C8.85942 10.0769 10.2392 8.69715 10.2392 7.00013C10.2392 5.30311 8.85942 3.92334 7.1624 3.92334ZM7.1624 8.96908C6.07469 8.96908 5.19345 8.0828 5.19345 7.00013C5.19345 5.91747 6.07973 5.03119 7.1624 5.03119C8.24507 5.03119 9.13135 5.91747 9.13135 7.00013C9.13135 8.0828 8.24507 8.96908 7.1624 8.96908Z" fill="white"/>
<path d="M9.60468 13.2443H4.61937C2.54971 13.2443 0.867798 11.5624 0.867798 9.49275V4.50743C0.867798 2.43777 2.54971 0.755859 4.61937 0.755859H9.60468C11.6743 0.755859 13.3563 2.43777 13.3563 4.50743V9.49275C13.3563 11.5624 11.6743 13.2443 9.60468 13.2443ZM4.61434 1.92917C3.19428 1.92917 2.03607 3.08737 2.03607 4.50743V9.49275C2.03607 10.9128 3.19428 12.071 4.61434 12.071H9.59965C11.0197 12.071 12.1779 10.9128 12.1779 9.49275V4.50743C12.1779 3.08737 11.0197 1.92917 9.59965 1.92917H4.61434Z" fill="white"/>
</svg>
