<svg width="10" height="11" viewBox="0 0 10 11" fill="none" xmlns="http://www.w3.org/2000/svg">
<path d="M0.190927 4.19006H2.25555V10.817H0.190927V4.19006ZM1.22324 0.896729C1.88291 0.896729 2.41669 1.43051 2.41669 2.09018C2.41669 2.74985 1.88291 3.28364 1.22324 3.28364C0.563567 3.28364 0.0247498 2.74985 0.0247498 2.09018C0.0247498 1.43051 0.558531 0.896729 1.22324 0.896729Z" fill="white"/>
<path d="M3.54971 4.1901H5.5237V5.09652H5.54887C5.82584 4.57281 6.49558 4.02393 7.49768 4.02393C9.58245 4.02393 9.97019 5.39363 9.97019 7.18129V10.817H7.9106V7.59422C7.9106 6.82376 7.8955 5.83677 6.838 5.83677C5.78051 5.83677 5.60427 6.67269 5.60427 7.53882V10.817H3.54468V4.1901H3.54971Z" fill="white"/>
</svg>
