<?xml version="1.0" standalone="no"?>
<!DOCTYPE svg PUBLIC "-//W3C//DTD SVG 20010904//EN"
 "http://www.w3.org/TR/2001/REC-SVG-20010904/DTD/svg10.dtd">
<svg version="1.0" xmlns="http://www.w3.org/2000/svg"
 width="115.000000pt" height="107.000000pt" viewBox="0 0 115.000000 107.000000"
 preserveAspectRatio="xMidYMid meet">

<g transform="translate(0.000000,107.000000) scale(0.100000,-0.100000)"
fill="#000000" stroke="none">
<path d="M260 1060 c0 -5 11 -10 25 -10 14 0 25 5 25 10 0 6 -11 10 -25 10
-14 0 -25 -4 -25 -10z"/>
<path d="M550 1060 c0 -5 11 -10 25 -10 14 0 25 5 25 10 0 6 -11 10 -25 10
-14 0 -25 -4 -25 -10z"/>
<path d="M820 1060 c0 -5 5 -10 10 -10 6 0 10 5 10 10 0 6 -4 10 -10 10 -5 0
-10 -4 -10 -10z"/>
<path d="M870 1060 c8 -5 22 -10 30 -10 13 0 13 1 0 10 -8 5 -22 10 -30 10
-13 0 -13 -1 0 -10z"/>
<path d="M1080 1060 c0 -5 9 -10 20 -10 11 0 20 5 20 10 0 6 -9 10 -20 10 -11
0 -20 -4 -20 -10z"/>
<path d="M370 1031 c0 -14 6 -17 25 -14 21 4 22 7 10 19 -19 20 -35 17 -35 -5z"/>
<path d="M622 1038 c3 -8 28 -14 66 -16 51 -2 62 0 62 13 0 12 -13 15 -66 15
-48 0 -65 -3 -62 -12z"/>
<path d="M495 999 c-4 -6 -4 -13 0 -17 3 -3 9 -1 13 5 4 6 16 13 27 16 16 4
14 5 -7 6 -15 0 -30 -4 -33 -10z"/>
<path d="M798 1003 c7 -3 16 -2 19 1 4 3 -2 6 -13 5 -11 0 -14 -3 -6 -6z"/>
<path d="M976 995 c4 -8 10 -15 15 -15 5 0 9 7 9 15 0 8 -7 15 -15 15 -9 0
-12 -6 -9 -15z"/>
<path d="M1130 975 c0 -19 5 -35 10 -35 6 0 10 16 10 35 0 19 -4 35 -10 35 -5
0 -10 -16 -10 -35z"/>
<path d="M880 968 c0 -4 5 -8 11 -8 6 0 17 -6 25 -14 8 -8 14 -19 14 -25 0 -6
6 -11 14 -11 9 0 12 8 8 25 -2 15 0 25 7 25 6 0 11 -5 11 -12 0 -6 2 -9 5 -6
3 3 3 12 0 21 -5 11 -19 15 -51 15 -24 -1 -44 -5 -44 -10z"/>
<path d="M262 923 c5 -26 38 -29 38 -4 0 15 -6 21 -21 21 -14 0 -19 -5 -17
-17z"/>
<path d="M347 880 c-15 -15 -27 -33 -27 -39 0 -7 -7 -23 -16 -36 -9 -14 -12
-25 -6 -25 6 0 16 14 24 30 7 17 16 30 20 30 5 0 8 5 8 11 0 7 9 20 20 29 12
10 17 21 12 24 -4 2 -20 -8 -35 -24z"/>
<path d="M943 875 c-17 -19 -16 -25 2 -25 8 0 15 9 15 20 0 23 -1 24 -17 5z"/>
<path d="M610 840 c0 -5 7 -7 15 -4 8 4 15 8 15 10 0 2 -7 4 -15 4 -8 0 -15
-4 -15 -10z"/>
<path d="M750 840 c0 -5 9 -10 19 -10 11 0 23 5 26 10 4 6 -5 10 -19 10 -14 0
-26 -4 -26 -10z"/>
<path d="M537 783 c-13 -12 -7 -23 12 -23 10 0 24 7 31 15 10 13 9 15 -12 15
-14 0 -28 -3 -31 -7z"/>
<path d="M128 773 c7 -3 16 -2 19 1 4 3 -2 6 -13 5 -11 0 -14 -3 -6 -6z"/>
<path d="M500 740 c0 -5 5 -10 11 -10 5 0 7 5 4 10 -3 6 -8 10 -11 10 -2 0 -4
-4 -4 -10z"/>
<path d="M0 710 c0 -16 7 -20 35 -20 37 0 49 22 19 34 -32 12 -54 6 -54 -14z"/>
<path d="M800 705 c0 -8 9 -15 20 -15 11 0 20 7 20 15 0 8 -9 15 -20 15 -11 0
-20 -7 -20 -15z"/>
<path d="M135 677 c-17 -21 -18 -67 0 -67 10 0 15 10 15 30 0 17 5 30 10 30 6
0 10 5 10 10 0 14 -23 12 -35 -3z"/>
<path d="M660 684 c0 -10 28 -34 39 -34 6 0 11 9 11 20 0 15 -7 20 -25 20 -14
0 -25 -3 -25 -6z"/>
<path d="M680 600 c0 -13 5 -18 15 -14 8 4 15 12 15 20 0 8 -7 14 -15 14 -8 0
-15 -9 -15 -20z"/>
<path d="M120 585 c0 -9 6 -12 15 -9 8 4 15 10 15 15 0 5 -7 9 -15 9 -8 0 -15
-7 -15 -15z"/>
<path d="M0 565 c0 -11 11 -15 40 -15 29 0 40 4 40 15 0 11 -11 15 -40 15 -29
0 -40 -4 -40 -15z"/>
<path d="M460 542 c0 -26 25 -58 34 -44 4 7 2 12 -3 12 -20 0 -11 31 12 40 20
8 19 9 -10 9 -25 1 -33 -3 -33 -17z"/>
<path d="M550 524 c0 -11 8 -14 32 -12 46 4 49 28 4 28 -26 0 -36 -4 -36 -16z"/>
<path d="M795 500 c-9 -15 4 -30 26 -30 12 0 19 7 19 20 0 21 -33 29 -45 10z"/>
<path d="M1130 455 c0 -30 5 -55 10 -55 6 0 10 25 10 55 0 30 -4 55 -10 55 -5
0 -10 -25 -10 -55z"/>
<path d="M132 460 c-9 -14 -8 -19 3 -24 9 -3 15 0 15 8 0 8 5 16 12 18 8 3 7
6 -3 10 -9 4 -20 -2 -27 -12z"/>
<path d="M680 456 c0 -8 7 -16 15 -20 10 -4 15 1 15 14 0 11 -7 20 -15 20 -8
0 -15 -6 -15 -14z"/>
<path d="M0 420 c0 -11 7 -20 15 -20 8 0 15 6 15 14 0 8 -7 16 -15 20 -10 4
-15 -1 -15 -14z"/>
<path d="M680 390 l-23 -20 26 0 c20 0 27 5 27 20 0 11 -2 20 -3 20 -2 0 -14
-9 -27 -20z"/>
<path d="M0 345 c0 -8 7 -15 15 -15 8 0 15 7 15 15 0 8 -7 15 -15 15 -8 0 -15
-7 -15 -15z"/>
<path d="M100 310 c0 -18 7 -20 80 -20 73 0 80 2 80 20 0 18 -7 20 -80 20 -73
0 -80 -2 -80 -20z"/>
<path d="M500 322 c0 -12 29 -24 41 -16 5 3 9 0 9 -5 0 -16 80 -13 110 3 23
13 20 14 -44 21 -52 6 -70 4 -76 -6 -7 -10 -11 -10 -24 0 -9 8 -16 9 -16 3z"/>
<path d="M302 285 c0 -16 2 -22 5 -12 2 9 2 23 0 30 -3 6 -5 -1 -5 -18z"/>
<path d="M570 246 c0 -2 7 -6 15 -10 8 -3 15 -1 15 4 0 6 -7 10 -15 10 -8 0
-15 -2 -15 -4z"/>
<path d="M615 210 c3 -5 10 -10 16 -10 5 0 9 5 9 10 0 6 -7 10 -16 10 -8 0
-12 -4 -9 -10z"/>
<path d="M743 213 c9 -2 25 -2 35 0 9 3 1 5 -18 5 -19 0 -27 -2 -17 -5z"/>
<path d="M1020 205 c0 -11 12 -15 50 -15 38 0 50 4 50 15 0 11 -12 15 -50 15
-38 0 -50 -4 -50 -15z"/>
<path d="M274 165 c3 -8 1 -15 -4 -15 -6 0 -10 -9 -10 -20 0 -20 33 -29 43
-12 10 15 -6 62 -20 62 -9 0 -13 -6 -9 -15z"/>
<path d="M930 131 c0 -12 -5 -21 -11 -21 -6 0 -17 -7 -25 -15 -14 -13 -14 -15
0 -15 9 0 16 4 16 9 0 5 9 11 20 14 21 5 27 31 10 42 -5 3 -10 -3 -10 -14z"/>
<path d="M1130 116 c0 -31 -3 -34 -36 -40 -43 -9 -41 -30 4 -34 24 -2 32 1 32
12 0 9 5 16 10 16 6 0 10 18 10 40 0 22 -4 40 -10 40 -5 0 -10 -15 -10 -34z"/>
<path d="M405 120 c3 -5 8 -10 11 -10 2 0 4 5 4 10 0 6 -5 10 -11 10 -5 0 -7
-4 -4 -10z"/>
<path d="M790 50 c-8 -5 -54 -10 -102 -10 -72 0 -88 -3 -88 -15 0 -12 15 -15
79 -15 57 0 84 4 95 15 8 8 26 15 41 15 15 0 24 4 20 10 -8 13 -26 13 -45 0z"/>
<path d="M430 25 c7 -8 21 -15 31 -15 12 0 16 5 13 15 -4 8 -17 15 -31 15 -22
0 -24 -2 -13 -15z"/>
</g>
</svg>
